<svg width="17" height="18" viewBox="0 0 17 18" fill="none" xmlns="http://www.w3.org/2000/svg">
<path d="M1.24989 17.1249C1.16169 17.1255 1.07438 17.1073 0.993696 17.0717C0.91301 17.0361 0.840777 16.9838 0.781743 16.9183C0.72271 16.8528 0.678213 16.7755 0.651179 16.6915C0.624144 16.6076 0.615185 16.5189 0.624888 16.4312L1.10614 12.0562C1.12327 11.9164 1.18714 11.7864 1.28739 11.6874L11.5124 1.46244C11.6982 1.2763 11.9188 1.12863 12.1617 1.02787C12.4046 0.927108 12.665 0.875244 12.928 0.875244C13.191 0.875244 13.4514 0.927108 13.6943 1.02787C13.9372 1.12863 14.1579 1.2763 14.3436 1.46244L16.2874 3.40619C16.4735 3.59196 16.6212 3.81262 16.722 4.05553C16.8227 4.29844 16.8746 4.55884 16.8746 4.82182C16.8746 5.0848 16.8227 5.3452 16.722 5.58811C16.6212 5.83102 16.4735 6.05167 16.2874 6.23744L6.06864 16.4562C5.96966 16.5564 5.83972 16.6203 5.69989 16.6374L1.32489 17.1187L1.24989 17.1249ZM2.33114 12.4062L1.95614 15.7937L5.34364 15.4187L15.4061 5.35619C15.4761 5.28652 15.5315 5.20372 15.5694 5.11256C15.6072 5.02139 15.6267 4.92365 15.6267 4.82494C15.6267 4.72623 15.6072 4.62849 15.5694 4.53733C15.5315 4.44617 15.4761 4.36337 15.4061 4.29369L13.4561 2.34369C13.3865 2.27377 13.3037 2.2183 13.2125 2.18044C13.1213 2.14259 13.0236 2.1231 12.9249 2.1231C12.8262 2.1231 12.7284 2.14259 12.6373 2.18044C12.5461 2.2183 12.4633 2.27377 12.3936 2.34369L2.33114 12.4062Z" fill="#0884FF"/>
<path d="M14.375 7.88117C14.2928 7.88165 14.2112 7.86588 14.1351 7.83478C14.0589 7.80367 13.9897 7.75785 13.9313 7.69992L10.05 3.80617C9.99174 3.7479 9.94552 3.67872 9.91398 3.60258C9.88244 3.52644 9.86621 3.44483 9.86621 3.36242C9.86621 3.28001 9.88244 3.1984 9.91398 3.12226C9.94552 3.04613 9.99174 2.97694 10.05 2.91867C10.1083 2.8604 10.1775 2.81417 10.2536 2.78263C10.3298 2.7511 10.4114 2.73486 10.4938 2.73486C10.5762 2.73486 10.6578 2.7511 10.7339 2.78263C10.8101 2.81417 10.8792 2.8604 10.9375 2.91867L14.8313 6.81242C14.8898 6.87052 14.9363 6.93965 14.9681 7.01581C14.9998 7.09197 15.0161 7.17366 15.0161 7.25617C15.0161 7.33868 14.9998 7.42037 14.9681 7.49653C14.9363 7.57269 14.8898 7.64182 14.8313 7.69992C14.7714 7.75936 14.7001 7.80607 14.6217 7.83722C14.5433 7.86837 14.4594 7.88332 14.375 7.88117Z" fill="#0884FF"/>
<path d="M10.0533 6.81464L5.1875 11.6804L6.07138 12.5643L10.9372 7.69852L10.0533 6.81464Z" fill="#0884FF"/>
</svg>
